<svg width="20" height="21" viewBox="0 0 20 21" fill="none" xmlns="http://www.w3.org/2000/svg">
<path d="M5.3349 12.9053H6.26169L6.59017 12.5886C5.18239 10.9462 4.45504 8.70548 4.85391 6.32399C5.40529 3.06265 8.12699 0.458261 11.4118 0.0593912C16.3742 -0.550645 20.5506 3.62576 19.9406 8.58816C19.5417 11.873 16.9373 14.5947 13.676 15.1461C11.2945 15.5449 9.05378 14.8176 7.41137 13.4098L7.09462 13.7383V14.6651L2.10874 19.6509C1.62774 20.1319 0.841736 20.1319 0.360744 19.6509C-0.120247 19.1699 -0.120247 18.3839 0.360744 17.9029L5.3349 12.9053ZM12.3738 12.9053C15.2949 12.9053 17.653 10.5473 17.653 7.62618C17.653 4.70505 15.2949 2.34703 12.3738 2.34703C9.45265 2.34703 7.09462 4.70505 7.09462 7.62618C7.09462 10.5473 9.45265 12.9053 12.3738 12.9053Z" fill="#577BB0"/>
</svg>
